<?xml version="1.0" encoding="UTF-8" standalone="no"?>
<!-- Created with Inkscape (http://www.inkscape.org/) -->

<svg
   xmlns:dc="http://purl.org/dc/elements/1.1/"
   xmlns:cc="http://creativecommons.org/ns#"
   xmlns:rdf="http://www.w3.org/1999/02/22-rdf-syntax-ns#"
   xmlns:svg="http://www.w3.org/2000/svg"
   xmlns="http://www.w3.org/2000/svg"
   xmlns:sodipodi="http://sodipodi.sourceforge.net/DTD/sodipodi-0.dtd"
   xmlns:inkscape="http://www.inkscape.org/namespaces/inkscape"
   id="svg3043"
   version="1.1"
   inkscape:version="0.48.4 r9939"
   width="1000"
   height="890"
   sodipodi:docname="raspberrypi.svg">
  <metadata
     id="metadata3049">
    <rdf:RDF>
      <cc:Work
         rdf:about="">
        <dc:format>image/svg+xml</dc:format>
        <dc:type
           rdf:resource="http://purl.org/dc/dcmitype/StillImage" />
        <dc:title></dc:title>
      </cc:Work>
    </rdf:RDF>
  </metadata>
  <defs
     id="defs3047" />
  <sodipodi:namedview
     pagecolor="#ffffff"
     bordercolor="#666666"
     borderopacity="1"
     objecttolerance="10"
     gridtolerance="10"
     guidetolerance="10"
     inkscape:pageopacity="0"
     inkscape:pageshadow="2"
     inkscape:window-width="475"
     inkscape:window-height="383"
     id="namedview3045"
     showgrid="false"
     inkscape:zoom="0.53033707"
     inkscape:cx="512.13859"
     inkscape:cy="581.67807"
     inkscape:window-x="909"
     inkscape:window-y="24"
     inkscape:window-maximized="0"
     inkscape:current-layer="g5103"
     showguides="true"
     inkscape:guide-bbox="true"
     inkscape:object-paths="true"
     inkscape:snap-bbox="false"
     inkscape:snap-nodes="true" />
  <g
     id="g3661"
     transform="matrix(0.53078658,0,0,0.53078658,255.2536,171.70567)">
    <g
       id="g5103"
       transform="matrix(1.9814635,0,0,1.9814635,-422.39843,-338.06411)">
      <g
         id="g3022"
         inkscape:export-filename="/home/rodrigo/Dropbox/Programacion/HouseModule/module_1/static/img/icon.png"
         inkscape:export-xdpi="90"
         inkscape:export-ydpi="90">
        <path
           inkscape:connector-curvature="0"
           id="path2998"
           d="m 157.66598,829.75953 606.84588,0 1.79284,-406.36134 103.31375,2.74472 -1.26128,-12.70512 L 462.71149,10.263038 53.820689,413.43779 l 2.091345,11.65347 108.028896,2.2395 z"
           style="fill:#ffffff;fill-opacity:0.94117647000000004;stroke:#37474f;stroke-width:1.41419125000000001px;stroke-linecap:butt;stroke-linejoin:miter;stroke-opacity:0"
           sodipodi:nodetypes="cccccccccc" />
        <path
           sodipodi:nodetypes="ccccccccc"
           style="fill:#000000;fill-opacity:0.94117647;stroke:#37474f;stroke-width:1.31809819px;stroke-linecap:butt;stroke-linejoin:miter;stroke-opacity:0"
           d="m 178.2833,801.9175 565.61124,0 0,-392.11761 96.78912,4.08456 L 462.60124,38.105067 81.494204,413.88445 l 14.48189,0 82.307206,0 z"
           id="path4237"
           inkscape:connector-curvature="0" />
        <g
           id="g4039"
           transform="matrix(0.66537538,0,0,0.67658489,135.60144,203.58693)">
          <g
             id="g4320"
             transform="matrix(1.1422046,0,0,1.1422046,1196.0132,760.48095)">
            <path
               inkscape:connector-curvature="0"
               id="path3717"
               d="m -370.97181,223.87211 c -6.34202,-1.3691 -13.56268,-3.8117 -18.19826,-6.156 -12.47891,-6.31087 -26.40819,-19.64667 -26.40819,-25.28302 0,-3.68412 3.75947,-8.09075 10.42932,-12.22458 6.60235,-4.092 20.50543,-7.85602 35.58876,-9.63504 8.78386,-1.03601 27.49127,-0.43946 37.44849,1.19419 9.92399,1.62819 23.31913,6.45606 27.25139,9.82194 6.17225,5.28321 6.58099,9.39441 1.56488,15.74022 -9.68274,12.24962 -22.11201,20.69369 -36.88228,25.05669 -8.25499,2.4385 -23.06963,3.1532 -30.79411,1.4856 z m -88.596,-53.90866 c -22.7802,-4.80443 -43.3163,-22.47641 -51.8624,-44.62927 -3.2235,-8.35573 -4.6223,-16.27718 -4.5948,-26.020439 0.037,-13.03548 2.5406,-20.59127 8.3777,-25.28206 9.7969,-7.87302 25.0209,-5.16085 42.3463,7.54401 6.015,4.41087 18.95398,18.324671 23.29946,25.054849 9.81951,15.20826 15.05198,30.70754 14.22018,42.12202 -0.59533,8.16931 -1.38386,10.49154 -5.21445,15.35653 -5.62984,7.15012 -12.86741,8.7447 -26.57199,5.85436 z m 182.40529,0.10174 c -4.84191,-1.73541 -8.50566,-5.16859 -11.03698,-10.34242 -3.68724,-7.53648 -2.91452,-25.67239 1.53476,-36.02089 0.58091,-1.35114 1.91832,-4.56028 2.97204,-7.13141 2.39825,-5.852 11.15569,-19.592259 17.11487,-26.852939 6.22794,-7.58815 18.10658,-17.8777 25.29302,-21.90941 13.40777,-7.52193 26.39048,-7.6417 33.19434,-0.30621 3.77615,4.07123 6.15304,10.03865 8.15562,20.47548 1.45772,7.59731 0.53731,22.956099 -1.85723,30.991729 -5.96373,20.01301 -18.98938,35.48882 -37.69228,44.78223 -12.66357,6.29249 -29.7494,9.1556 -37.67816,6.31384 z m -85.25972,-19.17377 c -16.866,-2.41538 -29.00782,-8.04506 -38.43302,-17.81993 -8.76459,-9.08972 -13.10267,-17.4414 -15.41079,-29.66882 -0.92279,-4.888519 0.25659,-17.471689 2.15463,-22.988429 1.7997,-5.23091 7.60703,-15.13331 11.43479,-19.49806 10.5341,-12.01195 29.6627,-20.33565 46.72815,-20.33347 6.61733,7.4e-4 18.74573,2.57307 25.49418,5.40689 8.61608,3.61806 19.13658,12.49865 24.56114,20.73262 4.88618,7.41675 6.8588,12.24803 8.23702,20.17385 1.94138,11.16455 0.47435,20.254039 -5.11223,31.674279 -2.60679,5.3289 -4.36558,7.63484 -10.57404,13.86363 -6.59229,6.61388 -8.3432,7.91697 -15.25329,11.35197 -4.29336,2.13422 -10.4825,4.52144 -13.75364,5.3049 -6.12231,1.46637 -16.13504,2.36451 -20.0729,1.80057 z M -532.27871,61.524091 c -10.6213,-11.20584 -17.0965,-29.46071 -16.1306,-45.47572 1.2168,-20.1772599 12.1569,-38.9832 29.0505,-49.93762 2.4145,-1.56567 4.9446,-2.84666 5.6225,-2.84666 3.3994,0 7.5358,7.59752 8.8907,16.3302 0.9468,6.10262 1.2256,25.9820801 0.4435,31.621729 -4.2327,30.518381 -14.3082,54.642881 -22.8214,54.642881 -0.5205,0 -2.7954,-1.95065 -5.0552,-4.33481 z m 335.6638,0.53547 c -5.63871,-4.95084 -12.09028,-20.36538 -15.33645,-36.64283 -2.48629,-12.46719 -4.38483,-28.3919699 -4.38376,-36.77065 10e-4,-13.79554 3.02597,-25.90879 6.91024,-27.6786 2.10717,-0.96008 5.42702,0.48281 11.37691,4.94477 26.30684,19.72808 34.00122,53.00822 18.79757,81.30437 -4.3406,8.07847 -11.84252,17.15541 -14.17862,17.15541 -0.30368,0 -1.73732,-1.04061 -3.18589,-2.31247 z m -250.18787,-12.7676 c -9.58935,-2.61994 -15.04133,-5.83057 -22.30323,-13.1343 -6.8839,-6.92354 -10.6165,-13.27462 -13.1293,-22.3396 -2.0363,-7.3459499 -1.88,-24.45068 0.2927,-32.03779 7.2893,-25.45407 26.89931,-45.29664 50.7058,-51.30713 8.01096,-2.02255 20.30581,-1.70683 26.99021,0.69309 16.79612,6.03035 26.38939,15.95334 32.22255,33.33005 3.46463,10.32093 3.01628,26.3535302 -1.0689,38.2231001 -4.5988,13.3619199 -14.72268,27.1759099 -26.09504,35.6065899 -10.78998,7.99896 -21.1717,11.82988 -33.48941,12.35789 -6.55773,0.28109 -8.81674,0.0586 -14.12538,-1.3919 z m 162.0701,-1.03737 c -8.99518,-0.92376 -19.95199,-5.23489 -28.9942,-11.40824 -4.12576,-2.81676 -13.68533,-12.27487 -17.26398,-17.08078 -3.22629,-4.3327 -10.38252,-19.36630995 -11.85527,-24.9052599 -0.76104,-2.8622499 -1.59302,-9.0528901 -1.84881,-13.7569801 -0.91711,-16.8655 3.70667,-29.95908 14.51817,-41.11235 4.63846,-4.7851 9.21237,-7.67763 16.89894,-10.68687 4.56368,-1.78666 6.14743,-2.01203 14.41977,-2.052 7.75304,-0.0375 10.21092,0.24334 14.83214,1.69455 22.70182,7.12906 40.76661,25.69037 47.88842,49.20468 9.89518,32.671279 -5.00821,62.8798 -34.24486,69.41277 -5.07707,1.13448 -8.44763,1.29666 -14.35032,0.69048 z m 62.0773,-105.35292 c -8.54059,-4.57297 -14.18464,-8.11733 -19.70117,-12.37197 -2.65781,-2.04984 -7.84331,-6.00831 -11.52334,-8.79661 -9.92947,-7.52338 -30.68521,-27.675501 -38.39021,-37.273731 -3.30504,-4.11714 -5.32988,-7.99612 -4.84019,-9.27228 0.7139,-1.86038 7.98247,-2.99661 18.69685,-2.92271 9.00954,0.0622 11.28697,0.33777 16.94792,2.05124 28.43646,8.6072 47.07721,31.869521 49.31237,61.538311 0.26587,3.52902 0.26345,7.29269 -0.006,8.36371 -0.70945,2.82666 -3.38687,2.491 -10.49687,-1.31596 z m -286.14513,0.60042 c -1.3512,-3.52118 0.4843,-17.10017 3.511,-25.97388 3.5352,-10.36462 8.504,-18.177121 16.7896,-26.398811 12.5534,-12.45656 29.4115,-19.35044 47.15248,-19.28242 6.91042,0.0265 15.65235,1.45474 16.97017,2.77257 2.35164,2.35163 -7.4386,15.07443 -22.07637,28.689115 -11.78318,10.959596 -30.48188,26.046556 -37.52118,30.273746 -2.2489,1.35051 -5.871,3.59805 -8.049,4.99455 -4.4961,2.88275 -12.2437,6.1011 -14.6874,6.1011 -0.9009,0 -1.8411,-0.52918 -2.0893,-1.17597 z m 139.53773,-21.1725 c -11.86997,-1.54518 -28.05425,-8.19225 -34.8341,-14.30676 -2.04637,-1.84554 -4.6239,-5.200346 -5.81568,-7.569436 -1.81541,-3.608785 -2.07887,-4.851225 -1.73509,-8.182195 0.22293,-2.16004 0.98167,-5.04184 1.68608,-6.40402 3.12079,-6.03495 14.81663,-15.31895 25.12534,-19.94415 19.88489,-8.92174 43.24795,-7.11534 61.87455,4.78407 10.79385,6.89555 18.18623,15.28469 19.64019,22.28844 0.74446,3.58595 0.66665,4.43948 -0.68259,7.489675 -3.09479,6.996286 -6.86502,10.419576 -16.70476,15.167556 -7.46399,3.6016 -10.46271,4.6109 -17.55157,5.90743 -8.96935,1.64047 -21.85442,1.96023 -31.00237,0.76939 z M -486.94861,-238.20838 c -1.4311,-0.7835 -2.3404,-1.43858 -2.0206,-1.45571 0.9183,-0.0492 5.7378,2.07838 5.7378,2.53294 0,0.69705 -1.0121,0.40373 -3.7172,-1.07723 z m 258.38289,0.0836 c 0.38844,-0.36293 1.54264,-0.87871 2.56485,-1.14617 l 1.85862,-0.48629 -1.85862,1.11983 c -2.07137,1.24803 -3.70043,1.57362 -2.56485,0.51263 z"
               style="fill:#b80000;fill-opacity:1"
               transform="matrix(1.345097,0,0,1.345097,-130.54609,-240.18457)" />
            <path
               id="path4295"
               d="m -747.87365,-431.2334 c -0.382,-0.40053 0.6305,-1.84319 2.25,-3.20591 1.6195,-1.36272 2.94455,-3.31728 2.94455,-4.34347 0,-2.07327 -0.37647,-2.16125 -16.5,-3.85571 -5.5,-0.57801 -12.025,-1.64531 -14.5,-2.37177 l -4.5,-1.32085 4,-1.95405 c 4.68895,-2.2906 5.39997,-5.37932 1.5,-6.51606 -9.77718,-2.8498 -23.07162,-7.45143 -26,-8.99942 l -3.5,-1.85017 3.1849,-0.0442 c 8.63613,-0.11984 11.22258,-4.59873 4.23966,-7.3417 -5.05535,-1.9858 -18.39668,-9.80581 -22.42456,-13.14415 l -3,-2.48642 4.16822,-0.036 c 9.81675,-0.0847 9.68625,-2.89945 -0.45202,-9.74949 -4.24391,-2.86741 -9.7412,-7.01072 -12.2162,-9.20733 l -4.49999,-3.99383 4.66821,-0.0426 c 5.41796,-0.0495 7.83499,-0.7908 7.82391,-2.39963 -0.004,-0.62865 -3.8046,-4.63881 -8.44504,-8.91145 -4.64043,-4.27264 -9.31367,-8.99764 -10.38495,-10.5 l -1.94779,-2.73156 6.64282,0 c 6.35043,0 6.65416,-0.11003 6.90003,-2.5 0.19742,-1.9188 -0.6936,-3.19744 -3.8326,-5.5 -5.08692,-3.73143 -14.92459,-13.95194 -14.92459,-15.50539 0,-0.82482 1.8534,-0.95534 6.5,-0.45774 6.36715,0.68188 6.49975,0.64773 6.48778,-1.6704 -0.016,-3.09096 -6.1323,-17.05754 -9.26683,-21.16061 l -2.44911,-3.20589 8.61408,0.33728 c 4.73774,0.18551 11.87658,0.0346 15.86408,-0.33531 8.53547,-0.79187 9.14664,-1.97705 3.67879,-7.13389 l -3.5712,-3.36808 8.41124,0 c 5.13794,0 11.45444,0.77832 16.23116,2 11.17721,2.85865 12.5,2.73319 12.5,-1.18555 0,-1.92491 -0.89041,-4.13645 -2.24999,-5.58841 l -2.25,-2.40285 3.99999,0.71063 c 2.2,0.39084 8.09654,2.00563 13.10343,3.5884 5.00688,1.58278 9.84438,2.87778 10.75,2.87778 2.62128,0 2.05515,-5.36098 -0.94232,-8.92327 -1.4239,-1.6922 -2.11185,-3.07673 -1.5288,-3.07673 2.31751,0 16.94152,5.8637 20.97627,8.41073 2.35893,1.48913 5.04327,2.56466 5.96519,2.39007 2.07972,-0.39385 2.81135,-6.74554 1.13729,-9.87355 -1.08972,-2.03618 -0.86865,-2.00178 3.93391,0.61211 2.79869,1.52324 7.79451,4.95002 11.10181,7.61508 3.30731,2.66506 6.59602,4.84556 7.30825,4.84556 2.31291,0 3.69496,-2.31902 3.69496,-6.2 0,-2.14054 0.48963,-3.8 1.12121,-3.8 0.61667,0 4.73109,3.60988 9.14316,8.02195 5.82749,5.82749 8.513,7.8661 9.81701,7.45222 2.12941,-0.67585 4.34842,-6.72261 3.56559,-9.71617 -0.65775,-2.51521 11.58254,9.28374 17.1394,16.52143 2.01822,2.62869 4.31713,4.65369 5.10869,4.5 0.79157,-0.15369 2.10703,-2.28353 2.92326,-4.73298 l 1.48405,-4.45355 4.88747,5.31533 c 14.64231,15.92417 26.18976,41.81938 26.15197,58.64589 -0.0273,12.14447 -6.1509,22.34433 -18.05632,30.07565 l -5.21452,3.38629 -8.28548,-6.6981 c -9.92667,-8.02485 -32.29659,-22.78102 -46.74639,-30.83595 -21.28621,-11.86583 -67.6118,-32.48201 -72.98871,-32.48201 -4.22979,0 -1.78582,2.75506 6.19962,6.98876 32.08141,17.00879 63.55316,37.2158 84.74999,54.41524 11.34853,9.20837 24,21.65515 24,23.61169 0,2.99749 0.49341,7.25086 -7.66537,15.74678 -8.15878,8.49592 -22.73572,19.96561 -46.81771,25.18317 -10.02823,2.1727 -28.55818,3.76938 -29.71146,2.56016 z"
               style="fill:#00a800;fill-opacity:1"
               inkscape:connector-curvature="0" />
            <path
               id="path3743"
               d="m -496.14083,-432.32553 c -11.9818,-1.86192 -25.4455,-5.79489 -34.25411,-10.00617 -11.90556,-5.6919 -22.86153,-17.28955 -26.75344,-28.3204 l -1.52683,-4.32751 c 0,0 1.95373,-2.56071 3.14552,-3.62979 33.22856,-29.80719 70.62768,-56.77589 110.10058,-76.232 6.43719,-3.17287 8.75706,-5.90599 5.00002,-5.89066 -0.9625,0.004 -5.8,1.5372 -10.75,3.40728 -43.39307,16.39355 -89.18807,41.74756 -116.64281,64.57831 l -3.64283,3.02927 -6.33993,-4.261 c -12.15792,-8.17118 -17.59002,-18.85964 -16.58885,-32.64105 1.24638,-17.15622 12.91417,-41.41457 27.23315,-56.61994 l 3.76682,-4.00001 1.13531,4.00001 c 1.60967,5.67133 4.24233,5.76122 8.58314,0.29307 4.77121,-6.0103 15.14395,-16.79308 16.1545,-16.79308 0.46281,0 0.84149,1.73026 0.84149,3.84501 0,3.52823 2.22845,7.15499 4.39637,7.15499 0.40637,0 4.30515,-3.6 8.66395,-8 4.35881,-4.4 8.37836,-8 8.9324,-8 0.55399,0 1.00728,1.09571 1.00728,2.4349 0,3.73967 1.77566,7.5651 3.51151,7.5651 0.85854,0 4.51987,-2.26785 8.13629,-5.03967 3.6164,-2.77182 8.82285,-6.17862 11.56993,-7.57066 l 4.99467,-2.53099 -1.6062,2.29317 c -2.4981,3.56651 -1.88169,9.84815 0.96637,9.84815 0.74723,0 4.19069,-1.55672 7.65215,-3.45938 6.1576,-3.38464 11.53239,-5.56624 17.00455,-6.90207 l 2.72924,-0.66624 -2.47924,3.65339 c -2.77589,4.09049 -3.18615,7.16582 -1.06455,7.97995 0.77811,0.29859 5.61562,-0.79201 10.75002,-2.42356 5.13438,-1.63154 11.27075,-3.2834 13.63633,-3.67079 l 4.30108,-0.70435 -2.55109,2.55107 c -1.61786,1.61787 -2.55106,3.66512 -2.55106,5.59653 0,2.67905 0.34168,3.04545 2.84003,3.04545 1.56203,0 6.35901,-0.9 10.65996,-2 4.63741,-1.18605 11.09325,-2 15.86292,-2 l 8.04298,0 -3.70293,3.79216 c -2.03663,2.08569 -3.70297,4.27301 -3.70297,4.86071 0,1.41294 8.11734,2.32773 20.75002,2.33844 5.63749,0.005 10.24998,0.21371 10.24998,0.46428 0,0.25058 -1.08398,2.05296 -2.40887,4.00527 -2.82987,4.17005 -8.59112,17.64843 -8.59112,20.09883 0,1.50455 0.81189,1.61873 7.10269,0.99885 5.75081,-0.56667 6.95253,-0.44851 6.31375,0.62079 -2.31731,3.87905 -7.30897,9.22411 -12.51023,13.3959 -9.41095,7.54825 -8.99466,10.70488 1.34562,10.20361 3.16349,-0.15336 5.75099,-0.0109 5.75,0.31633 -10e-4,0.32734 -4.72684,5.19224 -10.50183,10.81088 -5.77499,5.61865 -10.5,10.59018 -10.5,11.04785 0,1.30737 2.76091,2.04268 7.83179,2.08581 l 4.66822,0.0397 -4.99774,4.59699 c -2.74875,2.52834 -8.26123,6.79918 -12.24999,9.49076 -3.98877,2.69158 -7.25228,5.50259 -7.25228,6.24668 0,1.62341 3.07,2.55395 8.48705,2.57251 l 3.98704,0.0137 -5.48704,4.00519 c -3.01788,2.20285 -9.8448,6.14035 -15.17096,8.75 -6.02542,2.95227 -9.70887,5.3453 -9.75,6.33429 -0.0816,1.96066 3.94969,3.89641 8.23095,3.95244 l 3.20297,0.0419 -3.5,1.9405 c -2.80202,1.55352 -12.48382,4.87614 -27.6724,9.49668 -2.22892,0.67806 -0.11606,4.35146 3.48589,6.06073 3.52914,1.67469 3.5592,1.73625 1.26224,2.58595 -3.86692,1.43042 -18.98688,3.83227 -24.12493,3.83227 -6.34067,0 -7.95082,0.73344 -7.95082,3.62169 0,1.6025 1.00211,3.01711 2.99641,4.22993 1.64804,1.00223 2.69802,2.12061 2.33333,2.4853 -1.06934,1.06936 -13.10656,0.58175 -22.79146,-0.92325 z"
               style="fill:#00a800;fill-opacity:1"
               inkscape:connector-curvature="0" />
          </g>
        </g>
      </g>
    </g>
    <text
       xml:space="preserve"
       style="font-size:40px;font-style:normal;font-weight:normal;line-height:125%;letter-spacing:0px;word-spacing:0px;fill:#000000;fill-opacity:1;stroke:none;font-family:Sans"
       x="35.826271"
       y="575.10596"
       id="text5111"
       sodipodi:linespacing="125%"
       transform="matrix(1.8839964,0,0,1.8839964,-480.89686,-323.49286)"><tspan
         sodipodi:role="line"
         id="tspan5113"
         x="35.826271"
         y="575.10596" /></text>
  </g>
</svg>
